<svg width="97" height="96" viewBox="0 0 97 96" fill="none" xmlns="http://www.w3.org/2000/svg">
<path d="M48.7645 44.2495L51.6065 1.11987H45.9226L48.7645 44.2495Z" fill="#E55733"/>
<path d="M48.7645 51.7505L51.6065 94.8801H45.9226L48.7645 51.7505Z" fill="#E55733"/>
<path d="M48.7645 51.7505L45.9226 94.8801H51.6065L48.7645 51.7505Z" fill="#E55733"/>
<path d="M48.7645 44.2495L45.9226 1.11987H51.6065L48.7645 44.2495Z" fill="#E55733"/>
<path d="M52.5149 47.9999L95.6445 50.8418V45.158L52.5149 47.9999Z" fill="#E55733"/>
<path d="M45.0141 47.9999L1.88452 50.8418V45.158L45.0141 47.9999Z" fill="#E55733"/>
<path d="M45.0141 47.9999L1.88452 45.158V50.8418L45.0141 47.9999Z" fill="#E55733"/>
<path d="M52.5149 47.9999L95.6445 45.158V50.8418L52.5149 47.9999Z" fill="#E55733"/>
<path d="M46.1127 45.3482L17.625 12.8413L13.6058 16.8605L46.1127 45.3482Z" fill="#E55733"/>
<path d="M51.4164 50.6519L83.9233 79.1395L79.9041 83.1587L51.4164 50.6519Z" fill="#E55733"/>
<path d="M51.4164 50.6519L79.9041 83.1587L83.9233 79.1395L51.4164 50.6519Z" fill="#E55733"/>
<path d="M46.1127 45.3482L13.6058 16.8605L17.625 12.8413L46.1127 45.3482Z" fill="#E55733"/>
<path d="M51.4164 45.3482L83.9233 16.8605L79.9041 12.8413L51.4164 45.3482Z" fill="#E55733"/>
<path d="M46.1127 50.6519L17.625 83.1587L13.6058 79.1395L46.1127 50.6519Z" fill="#E55733"/>
<path d="M46.1127 50.6519L13.6058 79.1395L17.625 83.1587L46.1127 50.6519Z" fill="#E55733"/>
<path d="M51.4164 45.3482L79.9041 12.8413L83.9233 16.8605L51.4164 45.3482Z" fill="#E55733"/>
<path d="M49.7351 44.3774L63.6429 3.45297L58.153 1.98193L49.7351 44.3774Z" fill="#E55733"/>
<path d="M47.7939 51.6226L39.376 94.0181L33.8861 92.547L47.7939 51.6226Z" fill="#E55733"/>
<path d="M47.7939 51.6226L33.8861 92.547L39.376 94.0181L47.7939 51.6226Z" fill="#E55733"/>
<path d="M49.7351 44.3774L58.153 1.98193L63.6429 3.45297L49.7351 44.3774Z" fill="#E55733"/>
<path d="M52.3872 48.9707L93.3117 62.8785L94.7827 57.3886L52.3872 48.9707Z" fill="#E55733"/>
<path d="M45.1419 47.0297L2.74634 38.6117L4.2177 33.1218L45.1419 47.0297Z" fill="#E55733"/>
<path d="M45.1419 47.0297L4.21738 33.1218L2.74634 38.6117L45.1419 47.0297Z" fill="#E55733"/>
<path d="M52.3872 48.9707L94.7827 57.3886L93.3117 62.8785L52.3872 48.9707Z" fill="#E55733"/>
<path d="M46.8893 44.7519L27.7856 5.97974L22.8634 8.82134L46.8893 44.7519Z" fill="#E55733"/>
<path d="M50.6398 51.2478L74.6657 87.178L69.7434 90.02L50.6398 51.2478Z" fill="#E55733"/>
<path d="M50.6398 51.2478L69.7434 90.02L74.6657 87.178L50.6398 51.2478Z" fill="#E55733"/>
<path d="M46.8893 44.7519L22.8634 8.82166L27.7856 5.97974L46.8893 44.7519Z" fill="#E55733"/>
<path d="M52.0126 46.1248L90.7847 27.0211L87.9428 22.0989L52.0126 46.1248Z" fill="#E55733"/>
<path d="M45.5165 49.8752L9.5863 73.9012L6.74438 68.9789L45.5165 49.8752Z" fill="#E55733"/>
<path d="M45.5165 49.8752L6.74438 68.9789L9.58598 73.9012L45.5165 49.8752Z" fill="#E55733"/>
<path d="M52.0126 46.1248L87.9428 22.0989L90.7847 27.0211L52.0126 46.1248Z" fill="#E55733"/>
<path d="M50.6398 44.7519L74.6657 8.82166L69.7434 5.97974L50.6398 44.7519Z" fill="#E55733"/>
<path d="M46.8893 51.2478L27.7856 90.02L22.8634 87.178L46.8893 51.2478Z" fill="#E55733"/>
<path d="M46.8893 51.2478L22.8634 87.178L27.7856 90.02L46.8893 51.2478Z" fill="#E55733"/>
<path d="M50.6398 44.7519L69.7434 5.97974L74.6657 8.82134L50.6398 44.7519Z" fill="#E55733"/>
<path d="M52.0126 49.8752L87.9428 73.9012L90.7847 68.9789L52.0126 49.8752Z" fill="#E55733"/>
<path d="M45.5165 46.1248L6.74438 27.0211L9.58598 22.0989L45.5165 46.1248Z" fill="#E55733"/>
<path d="M45.5165 46.1248L9.5863 22.0989L6.74438 27.0208L45.5165 46.1248Z" fill="#E55733"/>
<path d="M52.0126 49.8752L90.7847 68.9789L87.9428 73.9012L52.0126 49.8752Z" fill="#E55733"/>
<path d="M47.7939 44.3774L39.376 1.98193L33.8861 3.45329L47.7939 44.3774Z" fill="#E55733"/>
<path d="M49.7351 51.6226L63.6429 92.5467L58.153 94.0181L49.7351 51.6226Z" fill="#E55733"/>
<path d="M49.7351 51.6226L58.153 94.0181L63.6429 92.5467L49.7351 51.6226Z" fill="#E55733"/>
<path d="M47.7939 44.3774L33.8861 3.45297L39.376 1.98193L47.7939 44.3774Z" fill="#E55733"/>
<path d="M52.3872 47.0297L94.7827 38.6117L93.3117 33.1218L52.3872 47.0297Z" fill="#E55733"/>
<path d="M45.1419 48.9707L4.21738 62.8785L2.74634 57.3883L45.1419 48.9707Z" fill="#E55733"/>
<path d="M45.1419 48.9707L2.74634 57.3883L4.2177 62.8785L45.1419 48.9707Z" fill="#E55733"/>
<path d="M52.3872 47.0297L93.3117 33.1218L94.7827 38.6117L52.3872 47.0297Z" fill="#E55733"/>
</svg>
