<svg width="97" height="97" viewBox="0 0 97 97" fill="none" xmlns="http://www.w3.org/2000/svg">
<g clip-path="url(#clip0_238_117)">
<path fill-rule="evenodd" clip-rule="evenodd" d="M36.5582 10.2226C40.5825 -1.34861 56.9467 -1.34861 60.971 10.2226L62.0049 13.196L64.7086 11.5829C75.2289 5.30611 87.7643 15.8245 83.4097 27.2751L82.2907 30.2175L85.3985 30.7199C97.4923 32.6735 100.334 48.789 89.6376 54.7612L86.8888 56.2962L88.947 58.6786C96.9553 67.949 88.7736 82.1205 76.7406 79.8204L73.6485 79.2293L73.6936 82.3772C73.8696 94.6264 58.4926 100.223 50.7534 90.7266L48.7646 88.2863L46.7758 90.7266C39.0366 100.223 23.6597 94.6264 23.8357 82.3772L23.8805 79.2293L20.7886 79.8204C8.75565 82.1205 0.573894 67.949 8.58221 58.6786L10.6405 56.2962L7.89165 54.7612C-2.80467 48.789 0.0369335 32.6735 12.1307 30.7196L15.2385 30.2175L14.1195 27.2751C9.76493 15.8245 22.3006 5.30579 32.8206 11.5829L35.5243 13.1957L36.5582 10.2226ZM48.7646 24.6959C45.6673 30.3516 38.7813 32.8578 32.7736 30.516C34.0363 36.8395 30.3723 43.1858 24.2648 45.2536C29.2968 49.286 30.5691 56.5026 27.2197 62.0127C33.6664 61.8671 39.2798 66.5775 40.2558 72.9512C45.1006 68.6959 52.4286 68.6959 57.2734 72.9512C58.2494 66.5775 63.8629 61.8671 70.3096 62.0127C66.9601 56.5026 68.2325 49.286 73.2645 45.2536C67.1569 43.1858 63.4929 36.8396 64.7557 30.5164C58.7477 32.8581 51.8619 30.3516 48.7646 24.6959Z" fill="#336BB7"/>
</g>
<defs>
<clipPath id="clip0_238_117">
<rect width="96" height="96" fill="white" transform="translate(0.764526 0.528809)"/>
</clipPath>
</defs>
</svg>
