<svg width="97" height="97" viewBox="0 0 97 97" fill="none" xmlns="http://www.w3.org/2000/svg">
<path fill-rule="evenodd" clip-rule="evenodd" d="M26.426 35.326C24.7169 32.1365 23.7543 28.534 23.7543 24.7202C23.7543 11.6713 35.0206 1.09302 48.9181 1.09302V22.3653C50.8167 19.2745 53.4522 16.6229 56.7569 14.7004C68.0365 8.13974 82.8452 12.5599 89.8324 24.5733L71.3415 35.3282C74.978 35.4226 78.6029 36.3791 81.9297 38.2853C93.2513 44.7733 96.8273 59.8079 89.9172 71.8658L71.4106 61.2601C73.1198 64.4495 74.082 68.0521 74.082 71.8658C74.082 84.9148 62.8157 95.493 48.9181 95.493V74.2207C47.0196 77.3116 44.3844 79.9631 41.0794 81.8857C29.7998 88.4463 14.9914 84.0261 8.00423 72.0127L26.4948 61.2578C22.8586 61.1634 19.2333 60.2069 15.9069 58.3007C4.58535 51.8127 1.00903 36.7781 7.91911 24.7199L26.426 35.326ZM48.9316 48.2389L48.9181 48.2159V48.2389H48.9316ZM48.9181 48.3471V48.3701L48.905 48.3471H48.9181Z" fill="#43A363"/>
</svg>
